# xmcd
#
# Track frame offsets:
#	150
#	17777
#	30205
#	44247
#	58695
#	77620
#	92027
#	106737
#	120907
#	138835
#	156702
#	169450
#	183472
#	198137
#	217140
#	231490
#	246422
#	260555
#
# Disc length: 3701
#
# Revision: 1
# Processed by: cddbd v1.5.2PL0 Copyright (c) Steve Scherf et al.
# Submitted via: kJams Pro (development) 1.0patch45.4
#
DISCID=020e7312
DTITLE=Various Artist - NSC 3002
DYEAR=1990
DGENRE=Country
TTITLE0=Trisha Yearwood - Real Live Woman
TTITLE1=Brad Paisley - Me Neither
TTITLE2=Garth Brooks - Do What You Gotta To Do
TTITLE3=Faith Hill - The Way You Love Me
TTITLE4=Vince Gill - Let's Make Sure We Kiss Goodbye
TTITLE5=Yankee Grey - Another Nine Minutes
TTITLE6=Clint Black and Steve Wariner - Been There
TTITLE7=Trace Adkins - More
TTITLE8=Jennifer Day - The Fun Of Your Love
TTITLE9=Trisha Yearwood - Vocals - Real Live Woman
TTITLE10=Brad Paisley - Vocals - Me Neither
TTITLE11=Garth Brooks - Vocals - Do What You Gotta Do
TTITLE12=Faith Hill - Vocals - The Way You Love Me
TTITLE13=Vince Gill - Vocals - Let's Make Sure We Kiss Goodbye
TTITLE14=Yankee Grey - Vocals - Another Nine Minutes
TTITLE15=Clint Black and Steve Wariner - Vocals - Been There
TTITLE16=Trace Adkins - Vocals - More
TTITLE17=Jennifer Day - Vocals - The Fun Of Your Love
EXTD=
EXTT0=
EXTT1=
EXTT2=
EXTT3=
EXTT4=
EXTT5=
EXTT6=
EXTT7=
EXTT8=
EXTT9=
EXTT10=
EXTT11=
EXTT12=
EXTT13=
EXTT14=
EXTT15=
EXTT16=
EXTT17=
PLAYORDER=
